<svg width="25" height="24" viewBox="0 0 25 24" fill="none" xmlns="http://www.w3.org/2000/svg">
<path d="M9.14022 15.3555C8.8503 15.0656 8.8503 14.5848 9.14022 14.2949L11.2615 12.1736L8.60989 9.52191C8.22098 9.133 7.58458 9.133 7.19567 9.52191L5.61882 11.0988C3.39144 13.3261 3.2783 17.088 5.58347 19.2234C6.63706 20.1921 7.97349 20.6801 9.31699 20.6801C10.7241 20.673 12.1313 20.1427 13.2061 19.0678L14.9738 17.3001C15.3628 16.9112 15.3628 16.2748 14.9738 15.8859L12.3222 13.2342L10.2009 15.3555C9.91096 15.6455 9.43013 15.6455 9.14022 15.3555Z" fill="#4894FE"/>
<path d="M15.6805 3.31349C14.2733 3.32057 12.8662 3.85089 11.7914 4.9257L10.0236 6.69346C9.63473 7.08237 9.63473 7.71877 10.0236 8.10768L12.6753 10.7593L14.7966 8.63801C15.0865 8.34809 15.5674 8.34809 15.8573 8.63801C16.1472 8.92792 16.1472 9.40875 15.8573 9.69867L13.7359 11.82L16.3876 14.4716C16.7765 14.8605 17.4129 14.8605 17.8018 14.4716L19.3787 12.8948C21.606 10.6674 21.7192 6.9056 19.4069 4.7772C18.3604 3.8014 17.0169 3.32057 15.6805 3.31349Z" fill="#4894FE"/>
<path d="M12.6753 10.7593L11.2611 12.1735L12.3218 13.2342L13.736 11.82L12.6753 10.7593Z" fill="#4894FE"/>
</svg>
