<svg width="22" height="23" viewBox="0 0 22 23" fill="none" xmlns="http://www.w3.org/2000/svg">
<path d="M15.125 0.5C11.33 0.5 8.25 3.58 8.25 7.375C8.25 7.815 8.25 8.255 8.3325 8.6675L0 17V22.5H8.25V17H13.75V14.25L13.8325 14.1675C14.245 14.25 14.685 14.25 15.125 14.25C18.92 14.25 22 11.17 22 7.375C22 3.58 18.92 0.5 15.125 0.5ZM16.5 3.25C18.0125 3.25 19.25 4.4875 19.25 6C19.25 7.5125 18.0125 8.75 16.5 8.75C14.9875 8.75 13.75 7.5125 13.75 6C13.75 4.4875 14.9875 3.25 16.5 3.25Z" fill="#8696BB"/>
</svg>
