<svg width="25" height="24" viewBox="0 0 25 24" fill="none" xmlns="http://www.w3.org/2000/svg">
<path d="M17.0834 3.56V2C17.0834 1.59 16.7434 1.25 16.3334 1.25C15.9234 1.25 15.5834 1.59 15.5834 2V3.5H9.08336V2C9.08336 1.59 8.74336 1.25 8.33336 1.25C7.92336 1.25 7.58336 1.59 7.58336 2V3.56C4.88336 3.81 3.57336 5.42 3.37336 7.81C3.35336 8.1 3.59336 8.34 3.87336 8.34H20.7934C21.0834 8.34 21.3234 8.09 21.2934 7.81C21.0934 5.42 19.7834 3.81 17.0834 3.56Z" fill="#63B4FF"/>
<path d="M20.3334 9.84H4.33337C3.78337 9.84 3.33337 10.29 3.33337 10.84V17C3.33337 20 4.83337 22 8.33337 22H16.3334C19.8334 22 21.3334 20 21.3334 17V10.84C21.3334 10.29 20.8834 9.84 20.3334 9.84ZM9.54337 18.21C9.44337 18.3 9.33337 18.37 9.21337 18.42C9.09337 18.47 8.96337 18.5 8.83337 18.5C8.70337 18.5 8.57337 18.47 8.45337 18.42C8.33337 18.37 8.22337 18.3 8.12337 18.21C7.94337 18.02 7.83337 17.76 7.83337 17.5C7.83337 17.24 7.94337 16.98 8.12337 16.79C8.22337 16.7 8.33337 16.63 8.45337 16.58C8.69337 16.48 8.97337 16.48 9.21337 16.58C9.33337 16.63 9.44337 16.7 9.54337 16.79C9.72337 16.98 9.83337 17.24 9.83337 17.5C9.83337 17.76 9.72337 18.02 9.54337 18.21ZM9.75337 14.38C9.70337 14.5 9.63337 14.61 9.54337 14.71C9.44337 14.8 9.33337 14.87 9.21337 14.92C9.09337 14.97 8.96337 15 8.83337 15C8.70337 15 8.57337 14.97 8.45337 14.92C8.33337 14.87 8.22337 14.8 8.12337 14.71C8.03337 14.61 7.96337 14.5 7.91337 14.38C7.86337 14.26 7.83337 14.13 7.83337 14C7.83337 13.87 7.86337 13.74 7.91337 13.62C7.96337 13.5 8.03337 13.39 8.12337 13.29C8.22337 13.2 8.33337 13.13 8.45337 13.08C8.69337 12.98 8.97337 12.98 9.21337 13.08C9.33337 13.13 9.44337 13.2 9.54337 13.29C9.63337 13.39 9.70337 13.5 9.75337 13.62C9.80337 13.74 9.83337 13.87 9.83337 14C9.83337 14.13 9.80337 14.26 9.75337 14.38ZM13.0434 14.71C12.9434 14.8 12.8334 14.87 12.7134 14.92C12.5934 14.97 12.4634 15 12.3334 15C12.2034 15 12.0734 14.97 11.9534 14.92C11.8334 14.87 11.7234 14.8 11.6234 14.71C11.4434 14.52 11.3334 14.26 11.3334 14C11.3334 13.74 11.4434 13.48 11.6234 13.29C11.7234 13.2 11.8334 13.13 11.9534 13.08C12.1934 12.97 12.4734 12.97 12.7134 13.08C12.8334 13.13 12.9434 13.2 13.0434 13.29C13.2234 13.48 13.3334 13.74 13.3334 14C13.3334 14.26 13.2234 14.52 13.0434 14.71Z" fill="#63B4FF"/>
</svg>
